<svg width="263" height="72" viewBox="0 0 263 72" fill="none" xmlns="http://www.w3.org/2000/svg">
<path d="M0 16C0 7.16344 7.16344 0 16 0H247C255.837 0 263 7.16344 263 16V56C263 64.8366 255.837 72 247 72H16C7.16344 72 0 64.8366 0 56V16Z" fill="url(#paint0_linear_77_24)"/>
<path d="M64.8798 40.36H72.8398V43H60.5998V40.9L68.2798 31.64H60.7598V29H72.5398V31.1L64.8798 40.36ZM82.3397 32.24H85.4597V43H82.4997V41.72C81.6797 42.66 80.4797 43.16 79.1597 43.16C76.4597 43.16 74.5597 41.64 74.5597 38.32V32.24H77.6797V37.86C77.6797 39.66 78.4797 40.46 79.8597 40.46C81.2997 40.46 82.3397 39.54 82.3397 37.56V32.24ZM91.5502 40.6H97.2102V43H87.6102V41.12L93.0902 34.64H87.7502V32.24H97.0302V34.12L91.5502 40.6ZM106.93 32.24H110.05V43H107.09V41.72C106.27 42.66 105.07 43.16 103.75 43.16C101.05 43.16 99.1495 41.64 99.1495 38.32V32.24H102.27V37.86C102.27 39.66 103.07 40.46 104.45 40.46C105.89 40.46 106.93 39.54 106.93 37.56V32.24ZM112.68 34.68L112.48 29H115.14L114.92 34.68H112.68ZM125.229 32.24H128.229L123.369 43.66C122.329 46.26 120.849 47.04 118.909 47.04C117.809 47.04 116.609 46.68 115.909 46.06L117.049 43.84C117.529 44.26 118.189 44.52 118.809 44.52C119.669 44.52 120.149 44.14 120.569 43.18L120.609 43.08L115.949 32.24H119.169L122.189 39.54L125.229 32.24ZM137.223 32.24H140.343V43H137.383V41.72C136.563 42.66 135.363 43.16 134.043 43.16C131.343 43.16 129.443 41.64 129.443 38.32V32.24H132.563V37.86C132.563 39.66 133.363 40.46 134.743 40.46C136.183 40.46 137.223 39.54 137.223 37.56V32.24ZM149.117 43V29H155.477C160.057 29 163.197 31.76 163.197 36C163.197 40.24 160.057 43 155.477 43H149.117ZM152.357 40.34H155.317C158.097 40.34 159.917 38.68 159.917 36C159.917 33.32 158.097 31.66 155.317 31.66H152.357V40.34ZM175.96 37.66C175.96 37.9 175.92 38.24 175.9 38.5H167.76C168.06 39.84 169.2 40.66 170.84 40.66C171.98 40.66 172.8 40.32 173.54 39.62L175.2 41.42C174.2 42.56 172.7 43.16 170.76 43.16C167.04 43.16 164.62 40.82 164.62 37.62C164.62 34.4 167.08 32.08 170.36 32.08C173.52 32.08 175.96 34.2 175.96 37.66ZM170.38 34.44C168.96 34.44 167.94 35.3 167.72 36.68H173.02C172.8 35.32 171.78 34.44 170.38 34.44ZM184.578 32.08C187.118 32.08 189.038 33.56 189.038 36.84V43H185.918V37.32C185.918 35.58 185.118 34.78 183.738 34.78C182.238 34.78 181.158 35.7 181.158 37.68V43H178.038V32.24H181.018V33.5C181.858 32.58 183.118 32.08 184.578 32.08ZM202.523 37.66C202.523 37.9 202.483 38.24 202.463 38.5H194.323C194.623 39.84 195.763 40.66 197.403 40.66C198.543 40.66 199.363 40.32 200.103 39.62L201.763 41.42C200.763 42.56 199.263 43.16 197.323 43.16C193.603 43.16 191.183 40.82 191.183 37.62C191.183 34.4 193.643 32.08 196.923 32.08C200.083 32.08 202.523 34.2 202.523 37.66ZM196.943 34.44C195.523 34.44 194.503 35.3 194.283 36.68H199.583C199.363 35.32 198.343 34.44 196.943 34.44Z" fill="white"/>
<defs>
<linearGradient id="paint0_linear_77_24" x1="-6.2383e-06" y1="152.308" x2="310.44" y2="-42.9981" gradientUnits="userSpaceOnUse">
<stop offset="0.086381" stop-color="#E8652D"/>
<stop offset="0.317479" stop-color="#E82DD2"/>
<stop offset="0.61" stop-color="#A650FF"/>
<stop offset="0.945437" stop-color="#009DFF"/>
</linearGradient>
</defs>
</svg>
